name ./resultDataOpenSim/trcMotMarkerGrf/sub09/grf-14-03.mot
datacolumns 19
datarows 15
range 0.48400000 0.54000000
endheader

                time	     ground_force_vx	     ground_force_vy	     ground_force_vz	     ground_force_px	     ground_force_py	     ground_force_pz	   l_ground_force_vx	   l_ground_force_vy	   l_ground_force_vz	   l_ground_force_px	   l_ground_force_py	   l_ground_force_pz	     ground_torque_x	     ground_torque_y	     ground_torque_z	   l_ground_torque_x	   l_ground_torque_y	   l_ground_torque_z	
          0.48400000	         33.24869363	        457.53247252	        -27.07602969	         -0.63910514	          0.00000000	          0.14682787	          0.00000000	          0.00000000	          0.00000000	          0.00000000	          0.00000000	          0.00000000	          0.00000000	          3.68371345	          0.00000000	          0.00000000	          0.00000000	          0.00000000	
          0.48800000	         36.39685282	        467.86944486	        -26.10729156	         -0.63795626	          0.00000000	          0.14701102	          0.00000000	          0.00000000	          0.00000000	          0.00000000	          0.00000000	          0.00000000	          0.00000000	          4.28236274	          0.00000000	          0.00000000	          0.00000000	          0.00000000	
          0.49200000	         39.56377000	        478.51191002	        -25.09635391	         -0.63677438	          0.00000000	          0.14719696	          0.00000000	          0.00000000	          0.00000000	          0.00000000	          0.00000000	          0.00000000	          0.00000000	          4.90363489	          0.00000000	          0.00000000	          0.00000000	          0.00000000	
          0.49600000	         42.80582605	        489.26464030	        -24.37395357	         -0.63534847	          0.00000000	          0.14752413	          0.00000000	          0.00000000	          0.00000000	          0.00000000	          0.00000000	          0.00000000	          0.00000000	          5.47505729	          0.00000000	          0.00000000	          0.00000000	          0.00000000	
          0.50000000	         46.16251793	        500.18000858	        -24.24639598	         -0.63361315	          0.00000000	          0.14802695	          0.00000000	          0.00000000	          0.00000000	          0.00000000	          0.00000000	          0.00000000	          0.00000000	          5.92821181	          0.00000000	          0.00000000	          0.00000000	          0.00000000	
          0.50400000	         49.68208366	        511.58469903	        -24.93743752	         -0.63179497	          0.00000000	          0.14860497	          0.00000000	          0.00000000	          0.00000000	          0.00000000	          0.00000000	          0.00000000	          0.00000000	          6.21131061	          0.00000000	          0.00000000	          0.00000000	          0.00000000	
          0.50800000	         53.38912593	        523.82519707	        -26.53744982	         -0.63015595	          0.00000000	          0.14915269	          0.00000000	          0.00000000	          0.00000000	          0.00000000	          0.00000000	          0.00000000	          0.00000000	          6.29814229	          0.00000000	          0.00000000	          0.00000000	          0.00000000	
          0.51200000	         57.21438332	        537.00367061	        -28.98873041	         -0.62871449	          0.00000000	          0.14966528	          0.00000000	          0.00000000	          0.00000000	          0.00000000	          0.00000000	          0.00000000	          0.00000000	          6.19165862	          0.00000000	          0.00000000	          0.00000000	          0.00000000	
          0.51600000	         61.01094317	        550.96796678	        -32.10187632	         -0.62726652	          0.00000000	          0.15020523	          0.00000000	          0.00000000	          0.00000000	          0.00000000	          0.00000000	          0.00000000	          0.00000000	          5.92195256	          0.00000000	          0.00000000	          0.00000000	          0.00000000	
          0.52000000	         64.64723889	        565.54893606	        -35.59219607	         -0.62565013	          0.00000000	          0.15080827	          0.00000000	          0.00000000	          0.00000000	          0.00000000	          0.00000000	          0.00000000	          0.00000000	          5.53954337	          0.00000000	          0.00000000	          0.00000000	          0.00000000	
          0.52400000	         68.06347045	        580.76347826	        -39.11410680	         -0.62395533	          0.00000000	          0.15140321	          0.00000000	          0.00000000	          0.00000000	          0.00000000	          0.00000000	          0.00000000	          0.00000000	          5.10553985	          0.00000000	          0.00000000	          0.00000000	          0.00000000	
          0.52800000	         71.26372838	        596.72715885	        -42.29630964	         -0.62241443	          0.00000000	          0.15185283	          0.00000000	          0.00000000	          0.00000000	          0.00000000	          0.00000000	          0.00000000	          0.00000000	          4.68059200	          0.00000000	          0.00000000	          0.00000000	          0.00000000	
          0.53200000	         74.28751561	        613.37799835	        -44.80161108	         -0.62115401	          0.00000000	          0.15207832	          0.00000000	          0.00000000	          0.00000000	          0.00000000	          0.00000000	          0.00000000	          0.00000000	          4.31476342	          0.00000000	          0.00000000	          0.00000000	          0.00000000	
          0.53600000	         77.19493109	        630.34898451	        -46.39464732	         -0.62007847	          0.00000000	          0.15210544	          0.00000000	          0.00000000	          0.00000000	          0.00000000	          0.00000000	          0.00000000	          0.00000000	          4.04033912	          0.00000000	          0.00000000	          0.00000000	          0.00000000	
          0.54000000	         80.07667897	        647.12932587	        -46.99098948	         -0.61901923	          0.00000000	          0.15200025	          0.00000000	          0.00000000	          0.00000000	          0.00000000	          0.00000000	          0.00000000	          0.00000000	          3.86879405	          0.00000000	          0.00000000	          0.00000000	          0.00000000	
